# xmcd
#
# Track frame offsets:
#	150
#	21432
#	36645
#	56927
#	75160
#	94177
#	112307
#	124982
#	139260
#	154040
#	181412
#	204990
#	223292
#	241147
#	263830
#	280030
#	294192
#	311337
#
# Disc length: 4346 seconds
#
# Revision: 1
# Processed by: cddbd v1.5.1PL0 Copyright (c) Steve Scherf et al.
# Submitted via: CDex 1.50Beta5
#
DISCID=0e10f812
DTITLE=山崎まさよし - アレルギーの特効薬
DYEAR=1996
DGENRE=Blues
TTITLE0=月明かりに照らされて
TTITLE1=窮鼠猫を噛め
TTITLE2=心拍数
TTITLE3=中華料理
TTITLE4=週末には食事をしよう
TTITLE5=坂道のある街
TTITLE6=アレルギーの特効薬
TTITLE7=パンを焼く
TTITLE8=関係ない
TTITLE9=妖精といた夏
TTITLE10=根無し草ラプソディー
TTITLE11=ツバメ
TTITLE12=セロリ
TTITLE13=ただただ
TTITLE14=Mr.Spellman
TTITLE15=ステレオ
TTITLE16=ふたりでParisへ行こう
TTITLE17=コイン
EXTD=
EXTT0=
EXTT1=
EXTT2=
EXTT3=
EXTT4=
EXTT5=
EXTT6=
EXTT7=
EXTT8=
EXTT9=
EXTT10=
EXTT11=
EXTT12=
EXTT13=
EXTT14=
EXTT15=
EXTT16=
EXTT17=
PLAYORDER=
